<svg width="23.07" height="23.07" xmlns="http://www.w3.org/2000/svg" fill="#000000">
 <!-- 자연환기: 좌상단에서 내려오는 곡선이 원(외기)을 스치고 우하단 화살표로 빠진다 -->

 <g>
  <title>Layer 1</title>
  <path stroke="null" d="m1.28119,3.6c5.04931,0 9.22048,2.56839 12.40374,7.59814a1.15256,1.12367 0 0 1 -1.97582,1.17718c-2.85396,-4.60169 -6.36652,-6.52798 -10.42792,-6.52798a1.15256,1.12367 0 0 1 0,-2.24734z" id="svg_1"/>
  <circle cx="7.2" cy="12.9" r="3.6" id="svg_2"/>
  <path stroke="null" d="m12.44939,10.99532a0.99055,1.02713 0 0 1 1.36791,0.34238l3.30184,5.62478l1.13206,-2.15209a0.99055,1.02713 0 0 1 1.74526,0.97822l-2.4528,4.64656a0.99055,1.02713 0 0 1 -1.32074,0.42064l-4.48107,-2.44556a0.99055,1.02713 0 1 1 0.92452,-1.81949l2.07544,1.13474l-3.30184,-5.62478a0.99055,1.02713 0 0 1 0.33018,-1.41842l0.67924,0.31303z" id="svg_3"/>
 </g>
</svg>