<svg xmlns="http://www.w3.org/2000/svg" viewBox="2.62 -0.55 21.04 21.04" fill="#000000">
  <!-- 청정 순환: 같은 나무 + 우측 순환 화살표(공기청정 모드) -->
  <path d="M8.3 4.1a.8.8 0 0 1 .7.4l2.7 4.5a.6.6 0 0 1-.5.9h-.9l2.3 3.9a.6.6 0 0 1-.5.9H9.3v2.5a.8.8 0 0 1-1.6 0v-2.5H4.9a.6.6 0 0 1-.5-.9l2.3-3.9h-.9a.6.6 0 0 1-.5-.9l2.7-4.5a.8.8 0 0 1 .3-.4z"/>
  <path d="M17.6 3.1a4.6 4.6 0 0 1 4.2 2.8 1 1 0 1 1-1.8.8 2.6 2.6 0 0 0-2.4-1.6 2.6 2.6 0 0 0-1.5.5l1 .5a.85.85 0 0 1-.7 1.5l-2.9-1.3a.85.85 0 0 1-.4-1.2l1.5-2.7a.85.85 0 0 1 1.5.8l-.3.6a4.6 4.6 0 0 1 1.8-.7z"/>
  <path d="M13.5 8.2a1 1 0 0 1 1.3.5 2.6 2.6 0 0 0 2.4 1.6 2.6 2.6 0 0 0 1.4-.4l-1-.5a.85.85 0 0 1 .7-1.5l2.9 1.3a.85.85 0 0 1 .4 1.2l-1.5 2.7a.85.85 0 1 1-1.5-.8l.3-.6a4.6 4.6 0 0 1-1.7.6 4.6 4.6 0 0 1-4.2-2.8 1 1 0 0 1 .5-1.3z"/>
</svg>
