<svg xmlns="http://www.w3.org/2000/svg" viewBox="2.72 -0.33 19.76 19.76" fill="#000000">
  <!-- 청정 환기: 전열교환 나무(청정) + 우측으로 흩어지는 미립자 -->
  <path d="M8.3 2.6a.8.8 0 0 1 .7.4l2.7 4.5a.6.6 0 0 1-.5.9h-.9l2.3 3.9a.6.6 0 0 1-.5.9H9.3v2.5a.8.8 0 0 1-1.6 0v-2.5H4.9a.6.6 0 0 1-.5-.9l2.3-3.9h-.9a.6.6 0 0 1-.5-.9L8 3a.8.8 0 0 1 .3-.4z"/>
  <circle cx="15.4" cy="4.4" r="1.5"/>
  <circle cx="19.8" cy="6.6" r="1.1"/>
  <circle cx="15.7" cy="9.1" r="1.1"/>
  <circle cx="20" cy="11.1" r=".85"/>
  <circle cx="16.3" cy="13.2" r=".8"/>
  <circle cx="19.6" cy="15.4" r=".7"/>
</svg>
