<svg xmlns="http://www.w3.org/2000/svg" viewBox="-0.92 -0.47 25.83 25.83" fill="#000000">
  <!-- 요리(후드 연동): 꼭지 + 낮은 돔 뚜껑 + 사다리꼴 냄비 + 아래 화구 -->
  <rect x="11.15" y="1.6" width="1.7" height="2" rx=".85"/>
  <path d="M12 3.9a5.6 5.6 0 0 1 5.5 4.5H6.5A5.6 5.6 0 0 1 12 3.9z"/>
  <rect x="4.3" y="8.9" width="15.4" height="1.9" rx=".95"/>
  <path d="M5.9 12.1h12.2a.7.7 0 0 1 .7.8l-.7 4.6a1.9 1.9 0 0 1-1.9 1.6H7.8a1.9 1.9 0 0 1-1.9-1.6l-.7-4.6a.7.7 0 0 1 .7-.8z"/>
  <rect x="4.7" y="20" width="14.6" height="1.4" rx=".7"/>
  <rect x="6.9" y="21.9" width="1.4" height="1.4" rx=".5"/>
  <rect x="11.3" y="21.9" width="1.4" height="1.4" rx=".5"/>
  <rect x="15.7" y="21.9" width="1.4" height="1.4" rx=".5"/>
</svg>
