<svg xmlns="http://www.w3.org/2000/svg" viewBox="0 0 24 24" fill="#000000">
  <!-- (?) 헬프: 링 + 물음표. 링까지 자산에 넣어 LESS 의 border 흉내를 걷어낸다 -->
  <path fill-rule="evenodd" d="M12 1.7a10.3 10.3 0 1 0 0 20.6 10.3 10.3 0 0 0 0-20.6zm0 1.9a8.4 8.4 0 1 1 0 16.8 8.4 8.4 0 0 1 0-16.8z"/>
  <path d="M12 5.9a3.9 3.9 0 0 1 2.3 7.05c-.6.45-.85.75-.95 1.05-.06.2-.08.42-.08.72a1.15 1.15 0 0 1-2.3 0c0-.47.03-.94.18-1.4.25-.75.77-1.32 1.47-1.85a1.6 1.6 0 1 0-2.5-1.33 1.15 1.15 0 0 1-2.3 0A3.9 3.9 0 0 1 12 5.9z"/>
  <circle cx="12" cy="17.7" r="1.35"/>
</svg>
