<svg xmlns="http://www.w3.org/2000/svg" viewBox="0 0 24 24" fill="#000000">
  <!--
    전화 — 수화기.

    고전적인 수화기 실루엣이다. 좌상단(귀)에서 우하단(입)으로 대각선으로 눕고,
    가운데가 잘록하다. 통화 버튼의 관례라 이 각도를 지킨다 — 세우면 시계나
    아이스크림처럼 읽힌다.
  -->
  <path d="M7.4 3.1a1.9 1.9 0 0 0-2.55.28L3.7 4.75c-.7.83-.9 1.95-.5 2.95a21.5 21.5 0 0 0 12.1 12.1c1 .4 2.12.2 2.95-.5l1.37-1.15a1.9 1.9 0 0 0 .28-2.55l-2.1-2.9a1.9 1.9 0 0 0-2.4-.55l-1.6.85a1.2 1.2 0 0 1-1.35-.17 16 16 0 0 1-3.36-3.36 1.2 1.2 0 0 1-.17-1.35l.85-1.6a1.9 1.9 0 0 0-.55-2.4z"/>
</svg>
