<svg xmlns="http://www.w3.org/2000/svg" viewBox="0 0 24 24" fill="#000000">
  <!--
    세팅: 8날 기어 + 중앙 구멍 (`fill-rule="evenodd"` 로 구멍을 뚫는다).

    **구멍의 중심은 (12, 10.78) 이지 (12, 12) 가 아니다.** 이 기어의 잉크는
    y 1.6–19.95 에 걸쳐 있어서 — 위아래로 대칭이 아니다 — 몸통의 실제 중심이
    y ≒ 10.78 이다. 구멍을 viewBox 한가운데(12)에 두면 몸통보다 1.2 만큼 아래로
    처져 눈에 띄게 어긋난다. 실제로 그랬다.

    그러니 구멍을 옮길 때 (12,12) 로 되돌리지 마라. 기준은 viewBox 가 아니라
    **몸통의 잉크 bbox** 다. 바꾸고 나면 렌더해서 두 중심이 맞는지 재 볼 것.
  -->
  <path fill-rule="evenodd" d="M10.3 1.6h3.4a.9.9 0 0 1 .9.76l.26 1.72a7.6 7.6 0 0 1 1.5.87l1.63-.63a.9.9 0 0 1 1.1.4l1.7 2.95a.9.9 0 0 1-.2 1.14l-1.36 1.1a7.7 7.7 0 0 1 0 1.74l1.36 1.1a.9.9 0 0 1 .2 1.14l-1.7 2.95a.9.9 0 0 1-1.1.4l-1.63-.63a7.6 7.6 0 0 1-1.5.87l-.26 1.72a.9.9 0 0 1-.9.76h-3.4a.9.9 0 0 1-.9-.76l-.26-1.72a7.6 7.6 0 0 1-1.5-.87l-1.63.63a.9.9 0 0 1-1.1-.4l-1.7-2.95a.9.9 0 0 1 .2-1.14l1.36-1.1a7.7 7.7 0 0 1 0-1.74l-1.36-1.1a.9.9 0 0 1-.2-1.14l1.7-2.95a.9.9 0 0 1 1.1-.4l1.63.63a7.6 7.6 0 0 1 1.5-.87l.26-1.72a.9.9 0 0 1 .9-.76zM12 6.78a4 4 0 1 0 0 8 4 4 0 0 0 0-8z"/>
</svg>
